<svg width="32" height="32" viewBox="0 0 32 32" fill="none" xmlns="http://www.w3.org/2000/svg">
<path d="M26.8452 2.71582H16.0599C15.4222 2.71582 14.9053 3.23273 14.9053 3.87044V18.8894C14.9053 19.5271 15.4222 20.0441 16.0599 20.0441H26.8452C27.4829 20.0441 27.9998 19.5271 27.9998 18.8894V3.87044C27.9998 3.23273 27.4829 2.71582 26.8452 2.71582Z" fill="#FF7D19"/>
<path d="M21.9774 4.28501L11.4132 6.45737C10.7886 6.58581 10.3864 7.19631 10.5148 7.82094L13.5399 22.5321C13.6684 23.1567 14.2789 23.5589 14.9035 23.4305L25.4676 21.2581C26.0923 21.1297 26.4945 20.5192 26.3661 19.8946L23.341 5.18344C23.2125 4.55881 22.602 4.15657 21.9774 4.28501Z" fill="#A4FF00"/>
<path d="M18.019 6.41364L7.86184 10.0404C7.26127 10.2549 6.94826 10.9156 7.1627 11.5161L12.2132 25.6604C12.4276 26.261 13.0883 26.574 13.6889 26.3596L23.846 22.7328C24.4466 22.5184 24.7596 21.8577 24.5451 21.2571L19.4947 7.11279C19.2802 6.51222 18.6195 6.1992 18.019 6.41364Z" fill="#02FFF7"/>
<path d="M14.6863 8.44922L5.03344 13.2599C4.46269 13.5443 4.23059 14.2376 4.51503 14.8083L11.2141 28.2505C11.4985 28.8212 12.1918 29.0533 12.7626 28.7689L22.4155 23.9582C22.9862 23.6738 23.2183 22.9805 22.9339 22.4098L16.2348 8.96763C15.9504 8.39688 15.2571 8.16477 14.6863 8.44922Z" fill="#FF8CF9"/>
<path d="M13.4074 26.6041L11.9181 25.1398C11.7674 25.006 11.5415 24.9976 11.3742 25.1147C11.2068 25.2402 11.1566 25.4578 11.2487 25.6418C11.2738 25.6837 11.2989 25.7255 11.3407 25.759L12.805 27.1981C12.9472 27.3487 13.1815 27.3654 13.3572 27.2483C13.5245 27.1312 13.5831 26.9053 13.4994 26.7129C13.4827 26.671 13.4576 26.6375 13.4241 26.6041H13.4074Z" fill="#291482"/>
<path d="M14.4788 26.06L13.5919 25.1899C13.4413 25.056 13.2154 25.0476 13.048 25.1648C12.8807 25.2819 12.8305 25.5078 12.9225 25.6919C12.9476 25.7337 12.9727 25.7756 13.0062 25.809L13.8596 26.6457C14.0019 26.7964 14.2445 26.8215 14.4119 26.7043C14.5876 26.5788 14.6461 26.3529 14.5457 26.1604C14.529 26.1186 14.5039 26.0851 14.4704 26.0517L14.4788 26.06Z" fill="#291482"/>
<path d="M14.2775 24.2612L14.2357 24.2277C14.0432 24.1273 13.8424 24.052 13.6249 24.0185C13.5496 24.0018 13.4743 24.0269 13.4325 24.0855C13.3823 24.1357 13.3655 24.211 13.3823 24.2863C13.4408 24.4954 13.5412 24.6963 13.6751 24.872C13.7002 24.8971 13.7253 24.9138 13.7504 24.9389C13.8759 25.0226 14.0432 25.0309 14.1855 24.964C14.2273 24.9389 14.2692 24.9054 14.3026 24.872C14.3779 24.7883 14.4198 24.6795 14.4114 24.5624C14.4114 24.4536 14.3528 24.3448 14.2775 24.2695V24.2612Z" fill="#291482"/>
</svg>
