<svg width="32" height="32" viewBox="0 0 32 32" fill="none" xmlns="http://www.w3.org/2000/svg">
<path d="M23.7021 6C24.9711 6 26 7.02888 26 8.29785V23.7021C26 24.9711 24.9711 26 23.7021 26H8.29785C7.02888 26 6 24.9711 6 23.7021V8.29785C6 7.02888 7.02888 6 8.29785 6H23.7021ZM15.999 10.4746C12.948 10.4747 10.4825 12.949 10.4824 16C10.4824 16.093 10.4829 16.1863 10.4922 16.2793C10.9108 16.0095 13.1616 14.717 16.3057 16.3262C16.3057 16.3262 19.1896 17.8883 21.5059 15.6094C21.3105 12.7443 19.0501 10.4746 15.999 10.4746Z" fill="#ACA2FF"/>
<path d="M21.5257 16.0003C21.5257 19.0515 19.0513 21.5259 16.0001 21.5259C12.949 21.5259 10.6327 19.2003 10.4932 16.2794C10.9118 16.0096 13.1629 14.7166 16.3071 16.3259C16.3071 16.3259 19.1908 17.8887 21.5071 15.6096C21.5257 15.7399 21.5257 15.8701 21.5257 16.0003Z" fill="#291482"/>
<path d="M22.6603 10.7439C23.395 10.7439 23.9905 10.1484 23.9905 9.41371C23.9905 8.67905 23.395 8.08348 22.6603 8.08348C21.9256 8.08348 21.3301 8.67905 21.3301 9.41371C21.3301 10.1484 21.9256 10.7439 22.6603 10.7439Z" fill="#291482"/>
</svg>
