<svg width="32" height="32" viewBox="0 0 32 32" fill="none" xmlns="http://www.w3.org/2000/svg">
<path d="M19.7587 4.00852C19.2484 6.25209 16.0077 9.35857 16.0077 9.35857C16.0077 9.35857 12.7759 6.25209 12.2656 4.00852" fill="white"/>
<path d="M15.9987 5.35284C15.9987 5.35284 18.1652 5.35284 19.329 4.19926C19.4901 4.03577 19.714 3.95402 19.9378 4.02668C20.9941 4.37185 24.0827 5.39826 24.7362 5.92509C25.5061 6.54275 25.6852 6.34292 27.9322 10.7029C28.0486 10.9391 28.0128 11.2206 27.8427 11.4114L25.0406 14.4361C24.8078 14.6814 24.4229 14.6995 24.1812 14.4543L23.2054 13.5096V26.5C23.2054 26.7742 23.0174 27.0131 22.7399 27.0839C21.6029 27.3581 18.8098 28.0658 16.0793 27.9951C13.0266 27.9597 10.3946 27.3581 9.26656 27.0839C8.99799 27.0219 8.80104 26.7831 8.80104 26.5V13.5096L7.82524 14.4543C7.58352 14.6905 7.19857 14.6814 6.96581 14.4361L4.16372 11.4114C3.98468 11.2206 3.94887 10.93 4.0742 10.7029C6.33019 6.34292 6.50924 6.54275 7.27914 5.93417C7.93266 5.41642 11.0212 4.38093 12.0776 4.03577C12.2925 3.9631 12.5163 4.04485 12.6864 4.20835C13.8591 5.36192 16.0077 5.36193 16.0077 5.36193L15.9987 5.35284Z" fill="white"/>
<path d="M20.1244 4.09168C20.1703 3.88973 20.0438 3.68879 19.8419 3.64285C19.6399 3.59692 19.439 3.7234 19.3931 3.92535L19.7587 4.00852L20.1244 4.09168ZM16.0077 9.35857L15.7478 9.62892L16.0073 9.87837L16.2672 9.62928L16.0077 9.35857ZM12.6313 3.92535C12.5853 3.7234 12.3844 3.59692 12.1824 3.64285C11.9805 3.68879 11.854 3.88973 11.8999 4.09168L12.2656 4.00852L12.6313 3.92535ZM15.9987 5.35284V4.97784C15.8476 4.97784 15.7112 5.06862 15.6528 5.20808C15.5944 5.34754 15.6255 5.5084 15.7316 5.61607L15.9987 5.35284ZM19.329 4.19926L19.593 4.46562L19.5961 4.4625L19.329 4.19926ZM19.9378 4.02668L20.0542 3.67023L20.0536 3.67001L19.9378 4.02668ZM24.7362 5.92509L24.5009 6.21704L24.5016 6.21759L24.7362 5.92509ZM27.9322 10.7029L28.2686 10.5371L28.2656 10.5311L27.9322 10.7029ZM27.8427 11.4114L28.1178 11.6663L28.1226 11.661L27.8427 11.4114ZM25.0406 14.4361L25.3126 14.6943L25.3157 14.691L25.0406 14.4361ZM24.1812 14.4543L24.4483 14.191L24.442 14.1849L24.1812 14.4543ZM23.2054 13.5096L23.4662 13.2402C23.358 13.1355 23.1977 13.1056 23.0591 13.1644C22.9204 13.2231 22.8304 13.3591 22.8304 13.5096H23.2054ZM22.7399 27.0839L22.8278 27.4484L22.8325 27.4472L22.7399 27.0839ZM16.0793 27.9951L16.089 27.6201L16.0837 27.6201L16.0793 27.9951ZM9.26656 27.0839L9.35516 26.7195L9.35082 26.7185L9.26656 27.0839ZM8.80104 13.5096H9.17604C9.17604 13.3591 9.08599 13.2231 8.94735 13.1644C8.80872 13.1056 8.64839 13.1355 8.54021 13.2402L8.80104 13.5096ZM7.82524 14.4543L7.5644 14.1849L7.56317 14.1861L7.82524 14.4543ZM6.96581 14.4361L6.69069 14.691L6.69381 14.6943L6.96581 14.4361ZM4.16372 11.4114L4.43883 11.1565L4.43714 11.1547L4.16372 11.4114ZM4.0742 10.7029L4.40263 10.8842L4.40726 10.8752L4.0742 10.7029ZM7.27914 5.93417L7.51169 6.22836L7.51201 6.22811L7.27914 5.93417ZM12.0776 4.03577L12.1941 4.39224L12.1977 4.391L12.0776 4.03577ZM12.6864 4.20835L12.9493 3.94099L12.9462 3.93799L12.6864 4.20835ZM16.0077 5.36193V5.73693C16.1589 5.73693 16.2953 5.64615 16.3536 5.50669C16.412 5.36723 16.3809 5.20637 16.2748 5.09869L16.0077 5.36193ZM19.7587 4.00852L19.3931 3.92535C19.1597 4.95128 18.2776 6.22787 17.4028 7.28593C16.973 7.80578 16.5583 8.25736 16.2509 8.57905C16.0973 8.73975 15.9709 8.86769 15.8832 8.95512C15.8393 8.99883 15.8052 9.03239 15.7822 9.05484C15.7707 9.06606 15.762 9.07451 15.7563 9.08005C15.7534 9.08282 15.7513 9.08487 15.7499 9.08618C15.7493 9.08683 15.7488 9.0873 15.7485 9.08758C15.7483 9.08772 15.7482 9.08781 15.7482 9.08786C15.7482 9.08788 15.7482 9.08788 15.7481 9.08789C15.7482 9.08788 15.7482 9.08786 16.0077 9.35857C16.2672 9.62928 16.2672 9.62924 16.2673 9.62918C16.2673 9.62914 16.2674 9.62907 16.2675 9.629C16.2676 9.62886 16.2678 9.62867 16.2681 9.62843C16.2686 9.62795 16.2693 9.62729 16.2701 9.62644C16.2719 9.62475 16.2744 9.6223 16.2777 9.61913C16.2843 9.61278 16.2938 9.60351 16.3062 9.59143C16.3309 9.56728 16.3669 9.53191 16.4127 9.4863C16.5042 9.39508 16.6349 9.26279 16.7931 9.0972C17.1093 8.76632 17.5367 8.30105 17.9809 7.76383C18.854 6.70776 19.8474 5.30932 20.1244 4.09168L19.7587 4.00852ZM16.0077 9.35857C16.2676 9.08822 16.2676 9.08824 16.2676 9.08825C16.2676 9.08824 16.2676 9.08824 16.2676 9.08822C16.2675 9.08817 16.2674 9.08808 16.2673 9.08794C16.267 9.08766 16.2665 9.08719 16.2658 9.08654C16.2645 9.08523 16.2623 9.08318 16.2595 9.08041C16.2538 9.07487 16.2451 9.06642 16.2336 9.0552C16.2107 9.03275 16.1767 8.99919 16.1329 8.95548C16.0455 8.86805 15.9194 8.74012 15.7662 8.57942C15.4596 8.25773 15.046 7.80615 14.6173 7.28629C13.7448 6.22831 12.8647 4.95158 12.6313 3.92535L12.2656 4.00852L11.8999 4.09168C12.1768 5.30903 13.1677 6.70732 14.0387 7.76347C14.4817 8.30068 14.9079 8.76595 15.2233 9.09684C15.3811 9.26242 15.5115 9.39471 15.6027 9.48593C15.6484 9.53155 15.6842 9.56692 15.7089 9.59107C15.7212 9.60315 15.7308 9.61242 15.7373 9.61877C15.7406 9.62194 15.7431 9.62439 15.7449 9.62608C15.7457 9.62693 15.7464 9.6276 15.7469 9.62807C15.7472 9.62831 15.7474 9.6285 15.7475 9.62864C15.7476 9.62871 15.7477 9.62878 15.7477 9.62882C15.7478 9.62888 15.7478 9.62892 16.0077 9.35857ZM15.9987 5.35284C15.9987 5.72784 15.9988 5.72784 15.999 5.72784C15.999 5.72784 15.9991 5.72784 15.9992 5.72784C15.9994 5.72784 15.9996 5.72784 15.9999 5.72784C16.0004 5.72784 16.0011 5.72784 16.0019 5.72783C16.0035 5.72783 16.0056 5.72782 16.0082 5.72779C16.0134 5.72775 16.0207 5.72766 16.0299 5.7275C16.0483 5.72718 16.0746 5.72656 16.1078 5.72534C16.1743 5.7229 16.2691 5.71809 16.3859 5.70858C16.6189 5.6896 16.9422 5.65169 17.3045 5.57565C18.0176 5.42599 18.9349 5.11794 19.593 4.4656L19.329 4.19926L19.065 3.93293C18.5593 4.43417 17.8115 4.70291 17.1504 4.84164C16.8256 4.9098 16.5345 4.94399 16.325 4.96105C16.2205 4.96957 16.1369 4.97377 16.0804 4.97584C16.0521 4.97687 16.0307 4.97738 16.0168 4.97762C16.0099 4.97774 16.0048 4.97779 16.0018 4.97782C16.0003 4.97783 15.9992 4.97784 15.9987 4.97784C15.9985 4.97784 15.9983 4.97784 15.9983 4.97784C15.9983 4.97784 15.9984 4.97784 15.9984 4.97784C15.9985 4.97784 15.9985 4.97784 15.9986 4.97784C15.9986 4.97784 15.9987 4.97784 15.9987 5.35284ZM19.329 4.19926L19.5961 4.4625C19.6822 4.37511 19.7636 4.36441 19.822 4.38335L19.9378 4.02668L20.0536 3.67001C19.6643 3.54362 19.2981 3.69642 19.0619 3.93603L19.329 4.19926ZM19.9378 4.02668L19.8213 4.38314C20.3485 4.55539 21.379 4.89642 22.3577 5.25936C22.8474 5.44096 23.3198 5.62646 23.7079 5.7978C24.109 5.9749 24.3811 6.12045 24.5009 6.21704L24.7362 5.92509L24.9716 5.63314C24.7646 5.46631 24.4056 5.286 24.0108 5.11169C23.6029 4.93162 23.1146 4.74016 22.6185 4.55616C21.6254 4.18789 20.5834 3.84314 20.0542 3.67023L19.9378 4.02668ZM24.7362 5.92509L24.5016 6.21759C24.9162 6.5502 25.0943 6.6121 25.4785 7.13315C25.8801 7.6779 26.4741 8.69219 27.5989 10.8747L27.9322 10.7029L28.2656 10.5311C27.1433 8.35363 26.5243 7.28784 26.0821 6.6881C25.6225 6.06466 25.3262 5.91764 24.9709 5.63259L24.7362 5.92509ZM27.9322 10.7029L27.5958 10.8687C27.6472 10.9728 27.6275 11.0892 27.5628 11.1618L27.8427 11.4114L28.1226 11.661C28.398 11.3521 28.45 10.9053 28.2686 10.5371L27.9322 10.7029ZM27.8427 11.4114L27.5676 11.1565L24.7655 14.1813L25.0406 14.4361L25.3157 14.691L28.1178 11.6662L27.8427 11.4114ZM25.0406 14.4361L24.7686 14.178C24.6719 14.2799 24.5313 14.2753 24.4483 14.1911L24.1812 14.4543L23.9141 14.7175C24.3145 15.1238 24.9438 15.0829 25.3126 14.6943L25.0406 14.4361ZM24.1812 14.4543L24.442 14.1849L23.4662 13.2402L23.2054 13.5096L22.9445 13.7791L23.9204 14.7237L24.1812 14.4543ZM23.2054 13.5096H22.8304V26.5H23.2054H23.5804V13.5096H23.2054ZM23.2054 26.5H22.8304C22.8304 26.5961 22.7652 26.6904 22.6472 26.7205L22.7399 27.0839L22.8325 27.4472C23.2695 27.3358 23.5804 26.9524 23.5804 26.5H23.2054ZM22.7399 27.0839L22.6519 26.7193C21.5078 26.9953 18.7621 27.6895 16.089 27.6202L16.0793 27.9951L16.0696 28.3699C18.8574 28.4422 21.698 27.7209 22.8278 27.4484L22.7399 27.0839ZM16.0793 27.9951L16.0837 27.6201C13.0738 27.5852 10.4745 26.9916 9.35515 26.7195L9.26656 27.0839L9.17797 27.4483C10.3146 27.7246 12.9793 28.3341 16.075 28.37L16.0793 27.9951ZM9.26656 27.0839L9.35082 26.7185C9.24879 26.6949 9.17604 26.6047 9.17604 26.5H8.80104H8.42604C8.42604 26.9614 8.7472 27.349 9.18231 27.4493L9.26656 27.0839ZM8.80104 26.5H9.17604V13.5096H8.80104H8.42604V26.5H8.80104ZM8.80104 13.5096L8.54021 13.2402L7.5644 14.1849L7.82524 14.4543L8.08607 14.7237L9.06187 13.7791L8.80104 13.5096ZM7.82524 14.4543L7.56317 14.1861C7.47265 14.2745 7.32802 14.273 7.23781 14.178L6.96581 14.4361L6.69381 14.6943C7.06912 15.0897 7.69439 15.1064 8.0873 14.7225L7.82524 14.4543ZM6.96581 14.4361L7.24091 14.1813L4.43882 11.1565L4.16372 11.4114L3.88863 11.6662L6.69071 14.691L6.96581 14.4361ZM4.16372 11.4114L4.43714 11.1547C4.36939 11.0826 4.3558 10.9687 4.40251 10.8841L4.0742 10.7029L3.74589 10.5217C3.54193 10.8912 3.59996 11.3587 3.8903 11.668L4.16372 11.4114ZM4.0742 10.7029L4.40726 10.8752C5.53659 8.69265 6.13273 7.67849 6.5353 7.13495C6.91981 6.6158 7.09744 6.55581 7.51169 6.22836L7.27914 5.93417L7.0466 5.63998C6.69094 5.92112 6.39409 6.0655 5.93261 6.68857C5.48918 7.28726 4.8678 8.35317 3.74114 10.5306L4.0742 10.7029ZM7.27914 5.93417L7.51201 6.22811C7.63274 6.13246 7.90601 5.98755 8.30721 5.81085C8.6956 5.63978 9.16827 5.45391 9.65804 5.27172C10.6369 4.90759 11.6676 4.56424 12.1941 4.39222L12.0776 4.03577L11.9611 3.67931C11.4312 3.85245 10.3894 4.19943 9.39656 4.56878C8.90045 4.75333 8.41243 4.94498 8.0049 5.12447C7.61018 5.29833 7.2523 5.47701 7.04627 5.64024L7.27914 5.93417ZM12.0776 4.03577L12.1977 4.391C12.2402 4.37663 12.3229 4.37916 12.4265 4.4787L12.6864 4.20835L12.9462 3.93799C12.7096 3.71054 12.3447 3.54957 11.9575 3.68053L12.0776 4.03577ZM12.6864 4.20835L12.4234 4.47569C13.0853 5.12676 13.9991 5.43485 14.7094 5.58466C15.0701 5.66072 15.3914 5.69865 15.623 5.71765C15.739 5.72716 15.8332 5.73198 15.8992 5.73442C15.9323 5.73564 15.9584 5.73626 15.9767 5.73659C15.9858 5.73675 15.9931 5.73683 15.9983 5.73688C16.0009 5.7369 16.003 5.73691 16.0045 5.73692C16.0053 5.73692 16.006 5.73692 16.0065 5.73692C16.0068 5.73692 16.007 5.73692 16.0072 5.73692C16.0073 5.73692 16.0074 5.73692 16.0075 5.73692C16.0076 5.73693 16.0077 5.73693 16.0077 5.36193C16.0077 4.98693 16.0078 4.98693 16.0079 4.98693C16.0079 4.98693 16.0079 4.98693 16.008 4.98693C16.008 4.98693 16.0081 4.98693 16.0081 4.98693C16.0081 4.98693 16.008 4.98693 16.0077 4.98692C16.0072 4.98692 16.0062 4.98692 16.0047 4.9869C16.0017 4.98688 15.9967 4.98682 15.9899 4.9867C15.9761 4.98646 15.9549 4.98596 15.9269 4.98493C15.8709 4.98286 15.788 4.97866 15.6843 4.97016C15.4764 4.9531 15.1873 4.91893 14.8642 4.8508C14.2071 4.71221 13.4602 4.44351 12.9493 3.94101L12.6864 4.20835ZM16.0077 5.36193L16.2748 5.09869L16.2658 5.08961L15.9987 5.35284L15.7316 5.61607L15.7406 5.62516L16.0077 5.36193Z" fill="#231C7D"/>
<path d="M12.1479 22.1482C9.52969 22.1482 7.40719 20.0257 7.40719 17.4074C7.40719 14.7892 9.52969 12.6667 12.1479 12.6667C14.7662 12.6667 16.8887 14.7892 16.8887 17.4074C16.8887 20.0257 14.7662 22.1482 12.1479 22.1482Z" fill="white"/>
<path d="M6.22201 23.3333L8.77015 20.7852Z" fill="white"/>
<path d="M6.22201 23.3333L8.77015 20.7852M7.40719 17.4074C7.40719 20.0257 9.52969 22.1482 12.1479 22.1482C14.7662 22.1482 16.8887 20.0257 16.8887 17.4074C16.8887 14.7892 14.7662 12.6667 12.1479 12.6667C9.52969 12.6667 7.40719 14.7892 7.40719 17.4074Z" stroke="#291482" stroke-width="1.5" stroke-linecap="round" stroke-linejoin="round"/>
</svg>
