<?xml version="1.0" encoding="UTF-8"?>
<svg id="Layer_1" data-name="Layer 1" xmlns="http://www.w3.org/2000/svg" viewBox="0 0 25.12 24.75">
  <defs>
    <style>
      .cls-1 {
        fill: #231c7d;
      }

      .cls-2 {
        fill: none;
        stroke: #231c7d;
        stroke-linecap: round;
        stroke-linejoin: round;
        stroke-width: 1.5px;
      }

      .cls-3 {
        fill: #fff;
      }
    </style>
  </defs>
  <path class="cls-1" d="M25.01,6.81l-.75-1.41c-.67-1.23-1.1-1.93-1.43-2.38-.46-.61-.76-.76-1.12-1.04l-.18-.12c-.21-.13-.48-.26-.78-.39-.41-.17-.89-.36-1.39-.54-.99-.37-2.03-.71-2.56-.88-.34-.11-.66,0-.89.17l-.09.08h-.01c-.51.5-1.26.76-1.92.9-.32.07-.61.1-.82.12-.11,0-.19.01-.25.01h-.16c-.06,0-.14-.01-.24-.01-.21-.02-.5-.05-.82-.12-.66-.14-1.41-.4-1.92-.89-.19-.19-.43-.31-.7-.31-.09,0-.18.02-.28.05-.53.17-1.58.51-2.57.88-.5.18-.98.37-1.39.54-.4.17-.75.35-.96.51-.36.28-.65.43-1.11,1.04-.33.45-.76,1.15-1.43,2.38l-.75,1.41c-.19.37-.15.82.15,1.13l2.82,2.98h0c.19.21.45.31.71.31s.49-.09.68-.27l.34-.33v12.23c0,.45.31.84.74.95.58.14,1.53.37,2.72.56,1.2.2,2.64.37,4.18.38,2.79.06,5.64-.66,6.76-.94h0c.43-.11.74-.5.74-.95v-12.23l.33.33c.39.38,1.03.36,1.4-.04l2.8-2.98c.16-.19.25-.43.25-.67,0-.15-.03-.31-.11-.46ZM11.45,1.93c.36.08.68.11.91.13.11.01.21.02.27.02h.22c.07,0,.16-.01.28-.02.23-.02.55-.05.91-.13.52-.1,1.15-.3,1.7-.64-.1.22-.23.43-.37.65-.36.58-.8,1.16-1.23,1.67s-.85.96-1.15,1.27c-.09.1-.18.18-.25.25-.07-.07-.15-.15-.24-.25-.31-.31-.72-.76-1.15-1.27-.43-.51-.88-1.09-1.24-1.67-.14-.22-.27-.44-.37-.65.56.34,1.18.54,1.71.64ZM24.31,7.43l-2.79,2.98c-.09.1-.24.1-.32,0h-.01l-.97-.94c-.11-.11-.27-.14-.4-.08-.14.06-.23.2-.23.35v13.11c0,.1-.07.19-.18.22-1.09.27-3.67.92-6.23.92h-.33c-1.5-.02-2.9-.18-4.07-.37-1.17-.19-2.09-.41-2.66-.55-.11-.02-.18-.12-.18-.22v-13.11c0-.15-.09-.29-.23-.35-.14-.06-.3-.03-.41.08l-.97.94c-.09.08-.24.08-.33,0l-2.82-2.98c-.06-.07-.08-.17-.03-.27l.75-1.41c.66-1.21,1.07-1.88,1.37-2.28.38-.51.56-.57.97-.9.12-.09.4-.23.8-.41.38-.17.86-.35,1.35-.53.87-.32,1.78-.62,2.34-.8.17.5.43,1.02.75,1.51.38.62.85,1.22,1.29,1.75.44.53.87.99,1.19,1.32.16.16.29.29.38.38.04.04.08.08.11.1.01.01.02.02.02.03h.01s.26.25.26.25l.26-.24h.01s.02-.03.03-.04l.1-.1c.1-.09.23-.22.39-.38.31-.33.74-.79,1.18-1.32.45-.53.91-1.13,1.3-1.75.31-.49.58-1.01.74-1.51.57.18,1.48.48,2.35.8.49.18.96.36,1.35.53.3.13.53.24.68.33l.12.08c.42.33.59.39.98.9.3.4.71,1.07,1.37,2.28l.75,1.41c.04.09.03.2-.04.27Z"/>
  <path class="cls-3" d="M24.31,7.43l-2.79,2.98c-.09.1-.24.1-.32,0h-.01l-.97-.94c-.11-.11-.27-.14-.4-.08-.14.06-.23.2-.23.35v13.11c0,.1-.07.19-.18.22-1.09.27-3.67.92-6.23.92h-.33c-1.5-.02-2.9-.18-4.07-.37-1.17-.19-2.09-.41-2.66-.55-.11-.02-.18-.12-.18-.22v-13.11c0-.15-.09-.29-.23-.35-.14-.06-.3-.03-.41.08l-.97.94c-.09.08-.24.08-.33,0l-2.82-2.98c-.06-.07-.08-.17-.03-.27l.75-1.41c.66-1.21,1.07-1.88,1.37-2.28.38-.51.56-.57.97-.9.12-.09.4-.23.8-.41.38-.17.86-.35,1.35-.53.87-.32,1.78-.62,2.34-.8.17.5.43,1.02.75,1.51.38.62.85,1.22,1.29,1.75.44.53.87.99,1.19,1.32.16.16.29.29.38.38.04.04.08.08.11.1.01.01.02.02.02.03h.01s.26.25.26.25l.26-.24h.01s.02-.03.03-.04l.1-.1c.1-.09.23-.22.39-.38.31-.33.74-.79,1.18-1.32.45-.53.91-1.13,1.3-1.75.31-.49.58-1.01.74-1.51.57.18,1.48.48,2.35.8.49.18.96.36,1.35.53.3.13.53.24.68.33l.12.08c.42.33.59.39.98.9.3.4.71,1.07,1.37,2.28l.75,1.41c.04.09.03.2-.04.27Z"/>
  <path class="cls-3" d="M15.74,1.29c-.1.22-.23.43-.37.65-.36.58-.8,1.16-1.23,1.67s-.85.96-1.15,1.27c-.09.1-.18.18-.25.25-.07-.07-.15-.15-.24-.25-.31-.31-.72-.76-1.15-1.27-.43-.51-.88-1.09-1.24-1.67-.14-.22-.27-.44-.37-.65.56.34,1.18.54,1.71.64.36.08.68.11.91.13.11.01.21.02.27.02h.22c.07,0,.16-.01.28-.02.23-.02.55-.05.91-.13.52-.1,1.15-.3,1.7-.64Z"/>
  <path class="cls-3" d="M7.42,19.05c-2.95,0-5.33-2.39-5.33-5.33s2.39-5.33,5.33-5.33,5.33,2.39,5.33,5.33-2.39,5.33-5.33,5.33Z"/>
  <path class="cls-3" d="M.75,20.38l2.87-2.87-2.87,2.87Z"/>
  <path class="cls-2" d="M.75,20.38l2.87-2.87M2.08,13.71c0,2.95,2.39,5.33,5.33,5.33s5.33-2.39,5.33-5.33-2.39-5.33-5.33-5.33-5.33,2.39-5.33,5.33Z"/>
</svg>