<svg width="32" height="32" viewBox="0 0 32 32" fill="none" xmlns="http://www.w3.org/2000/svg">
<path d="M15.5166 11.8892H25.6855C26.3543 11.8893 26.9223 12.3783 27.0225 13.0396L28.4121 22.2192C28.5358 23.0377 27.902 23.7741 27.0742 23.7739L14.1748 23.769C13.3499 23.7687 12.7176 23.0364 12.8369 22.2202L14.1777 13.0464C14.2749 12.382 14.8451 11.8892 15.5166 11.8892Z" fill="#ACA2FF" stroke="#ACA2FF" stroke-width="0.607647"/>
<mask id="path-2-outside-1_18157_16511" maskUnits="userSpaceOnUse" x="14.2725" y="4.77846" width="12" height="8" fill="black">
<rect fill="white" x="14.2725" y="4.77846" width="12" height="8"/>
<path d="M24.7985 7.31807C23.2483 5.77846 20.7801 5.78639 20.6717 5.77846H20.5923C20.4786 5.7811 18.0157 5.77846 16.4655 7.31807C15.6746 8.1011 15.2725 9.14338 15.2725 10.4185V12.1141H25.9916V10.4185C25.9916 9.14338 25.5921 8.10375 24.8011 7.31807M15.7248 11.6591V10.4185C15.7248 9.27036 16.0793 8.33919 16.7803 7.64081C18.1824 6.24934 20.5235 6.23611 20.587 6.23611H20.6717C20.6902 6.22553 23.0631 6.23346 24.4784 7.64081C25.1794 8.33654 25.5339 9.27036 25.5339 10.4185V11.6591H15.7222H15.7248Z"/>
</mask>
<path d="M24.7985 7.31807C23.2483 5.77846 20.7801 5.78639 20.6717 5.77846H20.5923C20.4786 5.7811 18.0157 5.77846 16.4655 7.31807C15.6746 8.1011 15.2725 9.14338 15.2725 10.4185V12.1141H25.9916V10.4185C25.9916 9.14338 25.5921 8.10375 24.8011 7.31807M15.7248 11.6591V10.4185C15.7248 9.27036 16.0793 8.33919 16.7803 7.64081C18.1824 6.24934 20.5235 6.23611 20.587 6.23611H20.6717C20.6902 6.22553 23.0631 6.23346 24.4784 7.64081C25.1794 8.33654 25.5339 9.27036 25.5339 10.4185V11.6591H15.7222H15.7248Z" fill="#ACA2FF"/>
<path d="M20.6717 5.77846L20.6772 5.7025H20.6717V5.77846ZM20.5923 5.77846V5.70248L20.5906 5.70252L20.5923 5.77846ZM16.4655 7.31807L16.519 7.37205L16.5191 7.37196L16.4655 7.31807ZM15.2725 12.1141H15.1965V12.1901H15.2725V12.1141ZM25.9916 12.1141V12.1901H26.0675V12.1141H25.9916ZM15.7248 11.6591V11.7351H15.8008V11.6591H15.7248ZM16.7803 7.64081L16.7268 7.58689L16.7267 7.587L16.7803 7.64081ZM20.6717 6.23611V6.31206H20.6919L20.7094 6.30206L20.6717 6.23611ZM24.4784 7.64081L24.4248 7.69467L24.4249 7.69472L24.4784 7.64081ZM25.5339 11.6591V11.7351H25.6099V11.6591H25.5339ZM24.7985 7.31807L24.852 7.26418C24.063 6.48052 23.0431 6.09301 22.2116 5.8999C21.3798 5.7067 20.7268 5.70633 20.6772 5.7027L20.6717 5.77846L20.6661 5.85421C20.725 5.85852 21.3604 5.85815 22.1773 6.04787C22.9945 6.23768 23.9838 6.616 24.745 7.37196L24.7985 7.31807ZM20.6717 5.77846V5.7025H20.5923V5.77846V5.85441H20.6717V5.77846ZM20.5923 5.77846L20.5906 5.70252C20.5329 5.70386 19.8822 5.70392 19.0503 5.89793C18.2195 6.09172 17.201 6.48058 16.412 7.26418L16.4655 7.31807L16.5191 7.37196C17.2803 6.61595 18.2683 6.23632 19.0848 6.04587C19.9004 5.85564 20.538 5.8557 20.5941 5.85439L20.5923 5.77846ZM16.4655 7.31807L16.4121 7.26409C15.6046 8.06345 15.1965 9.12624 15.1965 10.4185H15.2725H15.3484C15.3484 9.16052 15.7445 8.13875 16.519 7.37205L16.4655 7.31807ZM15.2725 10.4185H15.1965V12.1141H15.2725H15.3484V10.4185H15.2725ZM15.2725 12.1141V12.1901H25.9916V12.1141V12.0382H15.2725V12.1141ZM25.9916 12.1141H26.0675V10.4185H25.9916H25.9156V12.1141H25.9916ZM25.9916 10.4185H26.0675C26.0675 9.12629 25.6621 8.06619 24.8547 7.26418L24.8011 7.31807L24.7476 7.37196C25.5221 8.14131 25.9156 9.16047 25.9156 10.4185H25.9916ZM15.7248 11.6591H15.8008V10.4185H15.7248H15.6489V11.6591H15.7248ZM15.7248 10.4185H15.8008C15.8008 9.28711 16.1495 8.37648 16.8339 7.69462L16.7803 7.64081L16.7267 7.587C16.0091 8.30189 15.6489 9.25362 15.6489 10.4185H15.7248ZM16.7803 7.64081L16.8338 7.69472C17.5206 7.01313 18.4408 6.6664 19.2027 6.49067C19.9636 6.31517 20.5586 6.31206 20.587 6.31206V6.23611V6.16015C20.552 6.16015 19.9446 6.16366 19.1686 6.34264C18.3936 6.52139 17.4421 6.87701 16.7268 7.58689L16.7803 7.64081ZM20.587 6.23611V6.31206H20.6717V6.23611V6.16015H20.587V6.23611ZM20.6717 6.23611L20.7094 6.30206C20.7014 6.30659 20.6946 6.30854 20.6927 6.30908C20.6898 6.30989 20.6875 6.31034 20.6864 6.31055C20.6841 6.31098 20.6825 6.31114 20.6823 6.31116C20.6817 6.31123 20.682 6.31117 20.684 6.31107C20.6876 6.31089 20.6938 6.31072 20.7027 6.31063C20.7202 6.31046 20.7464 6.31067 20.7804 6.31163C20.8483 6.31354 20.9466 6.3184 21.0688 6.3289C21.3131 6.3499 21.6522 6.39342 22.0343 6.48078C22.8002 6.65586 23.7315 7.00523 24.4248 7.69467L24.4784 7.64081L24.532 7.58695C23.81 6.86904 22.8472 6.51077 22.0682 6.33269C21.6779 6.24347 21.3318 6.19903 21.0818 6.17754C20.9568 6.1668 20.8556 6.16177 20.7847 6.15978C20.7493 6.15878 20.7211 6.15854 20.7012 6.15873C20.6913 6.15882 20.683 6.15903 20.6765 6.15935C20.6733 6.15951 20.6697 6.15973 20.6663 6.1601C20.6646 6.16027 20.6619 6.16059 20.6587 6.16118C20.6571 6.16147 20.6545 6.162 20.6514 6.16289C20.6492 6.16351 20.6421 6.16554 20.634 6.17016L20.6717 6.23611ZM24.4784 7.64081L24.4249 7.69472C25.1092 8.37385 25.458 9.28702 25.458 10.4185H25.5339H25.6099C25.6099 9.25371 25.2497 8.29923 24.5319 7.58689L24.4784 7.64081ZM25.5339 10.4185H25.458V11.6591H25.5339H25.6099V10.4185H25.5339ZM25.5339 11.6591V11.5832H15.7222V11.6591V11.7351H25.5339V11.6591ZM15.7222 11.6591V11.7351H15.7248V11.6591V11.5832H15.7222V11.6591Z" fill="#ACA2FF" mask="url(#path-2-outside-1_18157_16511)"/>
<path d="M20.6191 16.3609C21.0442 16.3611 21.3887 16.7063 21.3887 17.1314C21.3885 17.5564 21.0441 17.9008 20.6191 17.9009C20.194 17.9009 19.8488 17.5565 19.8486 17.1314C19.8486 16.7062 20.1939 16.3609 20.6191 16.3609Z" fill="#291482" stroke="#291482" stroke-width="0.141276"/>
<path d="M15.5947 11.8149C15.675 11.815 15.7397 11.8811 15.7393 11.9614L15.7285 14.0054C15.7288 14.7306 16.1482 15.3738 16.791 15.6489L19.3965 16.7563C19.604 16.8445 19.8216 16.8871 20.0449 16.8872H21.1992C21.3665 16.8872 21.5309 16.8621 21.6904 16.813L21.8486 16.7554L24.4541 15.6489C25.099 15.3737 25.5156 14.7299 25.5156 14.0044V11.9604C25.5159 11.8806 25.5812 11.8159 25.6611 11.8159H25.8418C25.9216 11.816 25.9861 11.8806 25.9863 11.9604V14.0044C25.9863 14.9268 25.4553 15.7512 24.6318 16.102L22.0254 17.2085C21.762 17.3203 21.4836 17.3774 21.1992 17.3774H20.0449C19.7607 17.3774 19.483 17.3202 19.2197 17.2085L16.6133 16.102C15.7898 15.7512 15.2578 14.9268 15.2578 14.0044L15.2686 11.9595C15.269 11.8797 15.3343 11.8149 15.4141 11.8149H15.5947Z" fill="#291482" stroke="#291482" stroke-width="0.124251"/>
<path d="M4.1976 24.4072H25.5326C25.6505 24.4072 25.7329 24.5015 25.7329 24.6075C25.7329 25.4911 25.0143 26.2215 24.1189 26.2215H4.65705C4.26828 26.2215 3.9502 25.9034 3.9502 25.5146V24.6428C3.9502 24.5133 4.05622 24.4072 4.18581 24.4072H4.1976Z" fill="#291482"/>
<path d="M3.76086 18.2813C3.26607 19.0824 2.30004 21.1677 3.81977 23.783C3.93758 23.9833 4.14963 24.0893 4.37347 24.0893H25.5082C25.6378 24.0893 25.7321 23.9715 25.7085 23.8419C25.5907 23.2646 24.8367 21.792 20.466 20.6729C15.7537 19.4594 13.9866 17.975 13.2915 16.8912C13.1384 16.6556 12.8203 16.5967 12.6201 16.797C11.7129 17.6452 9.20359 19.3416 4.38524 18.034C4.14963 17.9633 3.89045 18.0693 3.76086 18.2813Z" fill="#291482"/>
<path d="M6.85855 24.1011C6.85855 24.1011 7.38869 17.7277 17.909 24.1011C17.909 24.1011 6.81142 24.1011 6.85855 24.1011Z" fill="#ACA2FF"/>
<path d="M18.6162 20.2095L18.2319 20.9788C18.1621 21.1185 18.2187 21.2883 18.3584 21.3581L18.3689 21.3634C18.5086 21.4332 18.6784 21.3765 18.7482 21.2368L19.1326 20.4675C19.2024 20.3278 19.1458 20.158 19.0061 20.0882L18.9956 20.0829C18.8559 20.0131 18.686 20.0698 18.6162 20.2095Z" fill="#ACA2FF"/>
<path d="M17.3057 19.6748L16.9213 20.4442C16.8515 20.5838 16.9082 20.7536 17.0478 20.8234L17.0584 20.8287C17.1981 20.8985 17.3679 20.8419 17.4377 20.7022L17.8221 19.9329C17.8919 19.7932 17.8352 19.6234 17.6955 19.5536L17.685 19.5483C17.5453 19.4785 17.3755 19.5351 17.3057 19.6748Z" fill="#ACA2FF"/>
<path d="M16.0303 19.0627L15.6459 19.832C15.5761 19.9717 15.6328 20.1415 15.7725 20.2113L15.783 20.2166C15.9227 20.2864 16.0925 20.2297 16.1623 20.09L16.5467 19.3207C16.6165 19.181 16.5598 19.0112 16.4202 18.9414L16.4096 18.9361C16.2699 18.8663 16.1001 18.923 16.0303 19.0627Z" fill="#ACA2FF"/>
<path d="M14.7998 18.4462L14.4154 19.2155C14.3456 19.3552 14.4023 19.525 14.542 19.5948L14.5525 19.6001C14.6922 19.6699 14.862 19.6132 14.9318 19.4735L15.3162 18.7042C15.386 18.5645 15.3294 18.3947 15.1897 18.3249L15.1791 18.3196C15.0395 18.2499 14.8696 18.3065 14.7998 18.4462Z" fill="#ACA2FF"/>
</svg>
