<svg width="32" height="32" viewBox="0 0 32 32" fill="none" xmlns="http://www.w3.org/2000/svg">
<path d="M30 16C30 23.7315 23.7315 30 16 30C8.26851 30 2 23.7315 2 16C2 8.26851 8.26851 2 16 2C23.7315 2 30 8.26851 30 16Z" fill="#FFF1DD"/>
<path d="M19.1778 20.5572C19.0352 20.4755 18.0626 20.0412 17.271 19.6887C16.8592 19.5076 16.4602 19.2913 16.082 19.0445L13.624 17.4486L13.3484 17.2707L12.7507 16.8813C12.6641 16.8268 12.6161 16.7339 12.6161 16.633L12.6417 14.8655C12.6433 14.7822 12.6289 14.7053 12.5952 14.6332C12.4254 14.2502 12.1338 14.0836 11.8165 14.1909C11.4976 14.2967 10.9784 14.5322 10.6996 14.662C10.4993 14.755 10.3727 14.9569 10.3727 15.1764C10.3727 15.2549 10.3423 15.3286 10.2846 15.3831C10.2301 15.4408 10.1596 15.4728 10.0763 15.4696L8.39059 15.4504C7.75445 15.4504 7.45801 15.6683 7.45801 16.1314V17.7082C7.45801 17.7242 7.46442 17.7723 7.47083 17.8283C7.47724 17.8748 7.48845 17.9581 7.49005 17.9886C7.45961 18.1344 7.45961 18.4324 7.45961 19.466C7.45961 19.9964 7.46121 20.7142 7.45801 21.6933C7.45801 21.9416 7.55415 22.1772 7.73041 22.3535C7.90347 22.5297 8.13902 22.6259 8.38739 22.6259H18.8029C19.0352 22.6259 19.2467 22.5201 19.3877 22.3503C19.463 22.2605 19.5175 22.1532 19.5432 22.033C19.5688 21.9128 19.5832 21.775 19.5832 21.6292C19.5832 20.8729 19.4518 20.7142 19.1762 20.5588M8.38899 22.3487C8.21273 22.3487 8.04768 22.2797 7.9243 22.158C7.80092 22.033 7.73362 21.8679 7.73362 21.6917V21.3968C7.73522 21.3023 7.73522 21.2126 7.73522 21.1212C7.73682 20.4258 7.73682 19.8842 7.73522 19.4612C7.73522 18.5045 7.73522 18.1456 7.76086 18.0382C7.76887 17.9966 7.76566 17.9485 7.74323 17.7883C7.73842 17.7482 7.73522 17.7162 7.73201 17.705V16.1282C7.73201 15.968 7.73201 15.7212 8.38739 15.7212L10.0731 15.7404H10.0795C10.2285 15.7404 10.3711 15.6827 10.4769 15.5754C10.5875 15.4696 10.6467 15.3254 10.6467 15.1732C10.6467 15.061 10.7124 14.9585 10.8134 14.9088C11.0906 14.7806 11.5954 14.5499 11.9046 14.4473C12.1273 14.372 12.2651 14.5659 12.3437 14.7422C12.3597 14.7758 12.3661 14.8175 12.3661 14.8591L12.3405 16.6265C12.3389 16.8236 12.435 17.0047 12.5984 17.1105L13.3484 17.596L13.624 17.7739L15.933 19.2737C16.324 19.5285 16.7358 19.7512 17.1604 19.9403C18.2548 20.4242 18.9391 20.7367 19.0416 20.7927C19.2131 20.8921 19.3092 20.9466 19.3092 21.626C19.3092 21.7542 19.298 21.8727 19.2756 21.9737C19.2275 22.1916 19.0288 22.347 18.8029 22.347H8.38899V22.3487Z" fill="#FF7300"/>
<path d="M19.2385 21.1228H7.7334V21.3984H19.2385V21.1228Z" fill="#FF7300"/>
<path d="M23.7759 21.4657V14.497C23.7759 13.441 23.1606 13.3048 22.8962 13.2968C22.853 13.2952 22.8129 13.2728 22.7793 13.2423C22.7745 13.2375 22.7713 13.2343 22.7665 13.2295C22.7504 13.2135 22.736 13.1958 22.7248 13.1814C22.5101 12.909 21.9989 12.9491 21.9556 12.9523H15.184C15.1263 12.9475 14.6151 12.909 14.402 13.1814C14.3908 13.1942 14.3764 13.2119 14.3588 13.2295C14.3572 13.2343 14.3523 13.2359 14.3475 13.2407C14.3139 13.2696 14.2754 13.2952 14.2306 13.2984C13.9646 13.3064 13.3493 13.4442 13.3493 14.4986V17.6008L13.6249 17.7787V14.4986C13.6249 13.9073 13.838 13.5868 14.2402 13.5724C14.2754 13.5708 14.3123 13.566 14.3475 13.5532C14.4469 13.5243 14.5382 13.4538 14.6183 13.3513L14.6232 13.3465C14.7097 13.2471 14.926 13.2231 15.0718 13.2231C15.1119 13.2231 15.1471 13.2247 15.1728 13.2279H21.9685C22.0758 13.2199 22.4011 13.2199 22.5069 13.3481H22.5085C22.587 13.4554 22.6815 13.5243 22.7809 13.5548C22.8161 13.566 22.8514 13.5708 22.8866 13.5724C23.2888 13.5852 23.5019 13.9073 23.5019 14.4986V21.477C23.5019 21.477 23.526 21.9032 23.2888 22.1564C23.1654 22.2862 22.9892 22.3519 22.7632 22.3519H13.6457C13.822 22.5345 14.0607 22.6275 14.362 22.6275H22.7632C23.0693 22.6275 23.3129 22.5329 23.4891 22.3438C23.8096 22.0009 23.7792 21.4818 23.7776 21.4689M13.3477 21.3968H13.6233V21.1212H13.3477V21.3968Z" fill="#FF7300"/>
<path d="M19.0221 17.6585H18.1039C17.8844 17.6585 17.6697 17.6168 17.4662 17.5351L15.3927 16.7019C14.7565 16.4455 14.3447 15.843 14.3447 15.1668V13.2295H14.6203V15.1668C14.6203 15.7308 14.9648 16.2324 15.4952 16.4471L17.5687 17.2803C17.7402 17.3492 17.9196 17.3829 18.1039 17.3829H19.0221C19.2063 17.3829 19.3858 17.3476 19.5573 17.2803L21.6308 16.4471C22.1627 16.2324 22.5057 15.7308 22.5057 15.1668V13.2295H22.7813V15.1668C22.7813 15.843 22.3694 16.4455 21.7333 16.7019L19.6598 17.5351C19.4563 17.6168 19.2416 17.6585 19.0221 17.6585Z" fill="#FF7300"/>
<path d="M21.0876 10.3213C20.1486 9.38867 18.6535 9.39348 18.5878 9.38867H18.5398C18.4709 9.39027 16.9791 9.38867 16.0401 10.3213C15.5609 10.7956 15.3174 11.4269 15.3174 12.1992V13.2264H21.8102V12.1992C21.8102 11.4269 21.5683 10.7972 21.0892 10.3213M15.5914 12.9508V12.1992C15.5914 11.5038 15.8061 10.9398 16.2307 10.5167C17.08 9.6739 18.4981 9.66588 18.5366 9.66588H18.5878C18.5991 9.65947 20.0364 9.66428 20.8937 10.5167C21.3183 10.9382 21.533 11.5038 21.533 12.1992V12.9508H15.5898H15.5914Z" fill="#FF7300"/>
<path d="M30 16C30 23.7315 23.7315 30 16 30C8.26851 30 2 23.7315 2 16C2 8.26851 8.26851 2 16 2C23.7315 2 30 8.26851 30 16Z" fill="#4B1574"/>
<path d="M23.8836 11.926C23.7052 11.4413 22.9966 11.0963 22.4044 11.0916H22.2673C22.2285 11.0869 22.1846 11.0869 22.1445 11.0869H19.1511C19.0942 11.0869 19.0477 11.1291 19.0477 11.1808V16.1227C19.0477 16.1744 19.0942 16.2166 19.1511 16.2166H20.942C20.9885 16.2166 21.0364 16.2131 21.0829 16.2084C21.0868 16.2084 21.0894 16.2084 21.0933 16.2084H21.3131C21.8911 16.2084 22.3553 15.7836 22.3553 15.2601C22.3553 15.2472 22.3553 15.2331 22.3695 15.2249L22.4574 15.2296V17.6261L22.3695 17.6308V17.5909C22.3695 17.0675 21.904 16.6473 21.3273 16.6426H19.1602C19.1033 16.6426 19.0567 16.6849 19.0567 16.7365V20.4697C19.0567 20.8769 19.4046 21.209 19.8442 21.2454V21.2489C19.839 21.297 19.7938 21.3334 19.7407 21.3334H16.7577C16.7034 21.3334 16.6594 21.297 16.6543 21.2489V21.2454C17.0991 21.2149 17.4456 20.8828 17.4508 20.4697V12.1642C17.4495 11.5739 16.9206 11.0963 16.2689 11.0951H14.1497C14.0928 11.0951 14.0462 11.1374 14.0462 11.189V20.4603C14.0462 20.8675 14.3941 21.1996 14.8337 21.236C14.8285 21.2841 14.7833 21.3205 14.7302 21.3205H11.7511C11.6981 21.3205 11.6528 21.2841 11.6476 21.236C12.0925 21.2055 12.4403 20.8687 12.4442 20.4603V11.1808C12.4442 11.1291 12.3976 11.0869 12.3407 11.0869H11.8468V11.0822H9.40553C8.80815 11.0822 8.30128 11.4354 8.12284 11.926C8.10732 11.9694 8.05948 11.9952 8.00905 11.9882H8L8.01422 11.9119C8.0194 11.8943 8.02327 11.872 8.02845 11.8497L8.25343 10.7442C8.26249 10.6996 8.30516 10.6667 8.35558 10.6667H23.6457C23.6961 10.6667 23.7375 10.6996 23.7479 10.743L23.9767 11.845C23.9819 11.8673 23.9858 11.8896 23.9909 11.9154L24 11.987H23.9909C23.9418 11.9952 23.894 11.9694 23.8772 11.926H23.8836Z" fill="#FBF2E5"/>
</svg>
