<svg width="24" height="24" viewBox="0 0 24 24" fill="none" xmlns="http://www.w3.org/2000/svg">
<path d="M2 22L3.91111 20.0889M2.88889 17.5556C2.88889 19.5192 4.48077 21.1111 6.44444 21.1111C8.40812 21.1111 10 19.5192 10 17.5556C10 15.5919 8.40812 14 6.44444 14C4.48077 14 2.88889 15.5919 2.88889 17.5556Z" stroke="#291482" stroke-width="1.5" stroke-linecap="round" stroke-linejoin="round"/>
<path d="M15.5615 1.39134C15.757 1.25071 16.0088 1.21166 16.2373 1.28783L20.6172 2.74779C21.2393 2.95519 21.7667 3.37902 22.1045 3.94115C22.4419 4.5027 22.5673 5.1662 22.459 5.81224L22.46 5.81322L21.8799 9.28294L21.8789 9.28197C21.8119 9.69181 21.6017 10.0648 21.2852 10.3337C20.9682 10.6027 20.5651 10.7494 20.1494 10.7488V10.7497H18.75V19.9997C18.75 20.7289 18.4598 21.4284 17.9443 21.9441C17.4288 22.4596 16.7291 22.7496 16 22.7497H8.41602C9.25866 22.4296 10.0027 21.9106 10.5918 21.2497H16C16.3313 21.2496 16.6495 21.1178 16.8838 20.8835C17.1179 20.6492 17.25 20.331 17.25 19.9997V9.99974C17.2501 9.58565 17.5859 9.24974 18 9.24974H20.1523C20.2115 9.24971 20.2693 9.22848 20.3145 9.19017C20.3482 9.16137 20.3741 9.12413 20.3887 9.08275L20.4004 9.03587L20.9805 5.56615V5.56517C21.0299 5.27136 20.9727 4.96903 20.8193 4.71361C20.6658 4.45812 20.4253 4.2659 20.1426 4.17162L16.6406 3.00365C16.4492 3.88845 16.0083 4.70802 15.3584 5.35814C14.4678 6.24879 13.2595 6.74957 12 6.74974C10.7403 6.74974 9.53141 6.24888 8.64062 5.35814C7.9908 4.70816 7.54892 3.88922 7.35742 3.00462L3.85742 4.17162H3.85645C3.57391 4.26587 3.33417 4.45836 3.18066 4.71361C3.04631 4.93724 2.98567 5.19655 3.00586 5.45482L3.01953 5.56517V5.56615L3.59961 9.03587L3.61133 9.08275C3.62596 9.12428 3.65157 9.16134 3.68555 9.19017C3.73087 9.22853 3.78827 9.24991 3.84766 9.24974H6C6.41383 9.25009 6.74986 9.58586 6.75 9.99974V12.0076C6.64882 12.0021 6.54689 11.9997 6.44434 11.9997C6.03425 11.9997 5.63478 12.0453 5.25 12.1296V10.7497H3.84961V10.7488C3.43404 10.7494 3.03178 10.6026 2.71484 10.3337C2.39741 10.0643 2.1858 9.69097 2.11914 9.28001L2.12012 9.27904L1.54004 5.81419L1.51074 5.57103C1.46648 5.0031 1.59913 4.43293 1.89453 3.94115C2.23241 3.37906 2.76061 2.95508 3.38281 2.74779L7.7627 1.28783C7.99123 1.21188 8.24309 1.25051 8.43848 1.39134C8.63381 1.53227 8.74992 1.75887 8.75 1.99974C8.75 2.86169 9.09266 3.6881 9.70215 4.29759C10.3116 4.90697 11.1381 5.24974 12 5.24974C12.8617 5.24957 13.6885 4.90693 14.2979 4.29759C14.9071 3.68814 15.25 2.86148 15.25 1.99974C15.2501 1.75876 15.366 1.53225 15.5615 1.39134Z" fill="#291482"/>
</svg>
